<svg width="115" height="80" viewBox="0 0 115 80" fill="none" xmlns="http://www.w3.org/2000/svg">
<g clip-path="url(#clip0)">
<rect x="0.5" y="0.5" width="114" height="79" rx="9.5" fill="url(#paint0_linear)"/>
<rect x="0.5" y="0.5" width="114" height="79" rx="9.5" stroke="#E8E8E8"/>
<rect x="0.5" y="0.5" width="114" height="79" rx="9.5" stroke="#EDEDED"/>
<path fill-rule="evenodd" clip-rule="evenodd" d="M105.092 -0.701172H10C4.47715 -0.701172 0 3.77599 0 9.29884V29.4943L5.38579e-05 29.5003L3.90541 20.5854H12.354L13.4738 22.8016V20.5854H23.3725L25.5248 25.4327L27.6542 20.5854H59.1127C60.5353 20.5854 61.8065 20.8453 62.784 21.6661V20.5854H71.3841V21.6661C72.8526 20.8636 74.702 20.5854 76.8038 20.5854H89.2817L90.4152 22.8016V20.5854H99.6531L100.943 22.8016V20.5854H109.933V39.3819H100.842L99.1024 36.5273V39.3819H87.7856L86.5328 36.3677H83.7426L82.4714 39.3819H76.5836C74.2523 39.3819 72.4992 38.8165 71.3841 38.2146L71.3886 39.3819H57.3872V35.1046C57.3872 34.5072 57.2954 34.4616 56.9053 34.4616H56.3776L56.3822 39.3819H29.32V37.0517L28.338 39.3865H22.6979L21.7204 37.0882V39.3819H10.8258L9.57299 36.3677H6.7828L5.53455 39.3819H5.38579e-05V70.0338C0.0179394 75.5413 4.48821 80.0006 10 80.0006H106.009C109.96 80.0006 113.376 77.7091 115 74.3827V61.8361C113.743 62.351 112.151 62.5653 110.543 62.5653H102.154V61.3751C101.186 62.1366 99.3916 62.5653 97.7257 62.5653H71.2602V58.1876C71.2602 57.686 71.2189 57.6404 70.6865 57.645H70.2597V62.5653H61.5174V57.4854C60.0764 58.101 58.4243 58.1329 57.0292 58.1329H55.9783V62.5653L45.4233 62.5561L42.8213 59.6377L40.0724 62.5653H22.9274V43.7687H40.3982L42.8901 46.6507L45.5702 43.7687H57.2862C58.6309 43.7687 60.8245 43.8918 61.8249 44.8494V43.7687H72.2744C73.2748 43.7687 75.395 43.9602 76.6616 44.8494V43.7687H92.4895V44.8494C93.2742 44.1062 94.9676 43.7687 96.3719 43.7687H105.229V44.8494C106.156 44.1837 107.501 43.7687 109.295 43.7687H115V7.93739C114.335 3.05549 110.15 -0.701172 105.092 -0.701172ZM115 46.4181H108.859C105.449 46.4181 104.215 48.4975 104.215 50.431C104.215 54.4623 107.598 54.5362 110.523 54.6C110.702 54.6039 110.878 54.6078 111.053 54.6125C111.608 54.6262 111.938 54.7083 112.181 54.9135C112.411 55.105 112.576 55.406 112.576 55.8073C112.576 56.1857 112.411 56.4867 112.195 56.6873C111.924 56.9336 111.493 57.0157 110.892 57.0157H104.655V59.9067H110.915C112.763 59.9067 114.145 59.4699 115 58.5759V52.7661C114.268 52.0414 113.101 51.7528 111.328 51.7123L109.589 51.6667C109.047 51.6576 108.675 51.6302 108.345 51.5162C107.927 51.3703 107.634 51.0192 107.634 50.5176C107.634 50.0844 107.771 49.7652 108.116 49.5417C108.432 49.332 108.822 49.3137 109.405 49.3137H115V46.4181ZM102.443 36.728H107.06V23.2394H103.719L103.724 32.6285L98.024 23.2394H93.0723V35.9938L87.5791 23.2394H82.7514L78.1852 33.8369H76.7304C75.8585 33.8369 74.959 33.6727 74.4817 33.1483C73.8438 32.4552 73.5593 31.4246 73.5593 29.9882C73.5593 28.57 73.9402 27.4939 74.5093 26.933C75.1426 26.3037 75.8172 26.1259 77.0149 26.1259L80.0484 26.1304V23.2394H76.9507C74.7158 23.2394 73.0591 23.7455 72.0174 24.8171C70.636 26.2535 70.2781 28.0821 70.2781 30.084C70.2781 32.5373 70.8563 34.074 71.9944 35.2277C73.1233 36.3632 75.115 36.728 76.7075 36.728H80.4797L81.7234 33.7092H88.4694L89.7177 36.728H96.3122L96.3077 26.6183L102.443 36.728ZM68.6948 36.728H65.3769V23.2348H68.6948V36.728ZM57.9379 23.2394C59.5808 23.2394 60.7969 23.2986 61.8433 23.8914C62.885 24.4888 63.5137 25.3734 63.5137 26.8828C63.5137 29.0215 62.0589 30.1296 61.2054 30.4625C61.9167 30.7315 62.527 31.2149 62.8024 31.607C63.2567 32.2591 63.3393 32.8793 63.3393 34.0512V36.728H60.0764V35.0225C60.0764 34.9501 60.077 34.8746 60.0776 34.7968C60.0834 34.012 60.091 32.9863 59.5441 32.4096C59.0806 31.9217 58.3693 31.8168 57.1899 31.8168H53.7113V36.728H50.4714V23.2394H57.9379ZM40.6414 33.919L48.2273 33.9099V36.728H37.4015V23.2394H48.2273V26.0483H40.6414V28.4789H48.0437V31.2514L40.6414 31.2468V33.919ZM29.5862 23.2394H34.983V36.728H31.6559V26.1669L26.9566 36.728H24.1068L19.3937 26.1532V36.728H12.7992L11.5509 33.7092H4.80488L3.56122 36.728H0.0275871L5.83284 23.2394H10.6606L16.1584 35.9984L16.1538 23.2394H21.4589L25.6854 32.3868L29.5862 23.2394ZM85.0918 25.5422L87.3038 30.9002H82.8844L85.0918 25.5422ZM57.6625 29.0489C58.2867 29.0489 58.8144 29.0306 59.2504 28.7707C59.6634 28.5336 59.9158 28.0684 59.9158 27.4893C59.9158 26.9193 59.6542 26.5043 59.2504 26.2809C58.8649 26.0666 58.2821 26.0483 57.7084 26.0483H53.7113V29.0489H57.6625ZM8.1733 25.5422L5.96593 30.9002H10.3853L8.1733 25.5422ZM98.6527 51.7123C100.452 51.7534 101.636 52.0543 102.365 52.7976C103.008 53.4679 103.338 54.2568 103.338 55.6613C103.338 58.5296 101.526 59.9067 98.2443 59.9067H91.9296V57.0157H98.2213C98.8271 57.0157 99.2539 56.9336 99.5246 56.6873C99.7403 56.4867 99.9101 56.1857 99.9101 55.8073C99.9101 55.406 99.7403 55.105 99.5109 54.9135C99.2722 54.7083 98.9372 54.6262 98.382 54.6125C98.2056 54.6077 98.0266 54.6038 97.8459 54.5999C94.9265 54.5365 91.5487 54.4632 91.5487 50.431C91.5487 48.4929 92.7832 46.4181 96.1929 46.4181H102.687V49.3137H96.7436C96.1562 49.3137 95.7616 49.332 95.4449 49.5417C95.1053 49.7652 94.9676 50.0844 94.9676 50.5176C94.9676 51.0192 95.2613 51.3703 95.6744 51.5162C96.0094 51.6302 96.3765 51.6576 96.918 51.6667L98.6527 51.7123ZM82.4163 57.0977L90.0022 57.1023V59.9067H79.1764V46.4181H90.0022V49.2317H82.4163V51.6622L89.8232 51.6576V54.4347H82.4163V57.0977ZM71.8109 46.4181C73.4492 46.4181 74.6607 46.4774 75.7116 47.0747C76.7533 47.6721 77.3821 48.5568 77.3821 50.0616C77.3821 52.2048 75.9273 53.3083 75.0829 53.6412C75.7896 53.9103 76.4 54.3936 76.6707 54.7904C77.1297 55.4424 77.2077 56.0626 77.2123 57.2346V59.9067H73.9448V58.2013C73.9448 58.125 73.9455 58.0454 73.9462 57.9633C73.9527 57.1808 73.9611 56.1661 73.4171 55.5884C72.949 55.105 72.2422 55.0001 71.0628 55.0001L67.5751 55.0047V59.9067H64.3397V46.4181H71.8109ZM47.002 46.4181H57.3643C59.9204 46.4181 62.8024 47.1477 62.8024 50.8778C62.8024 54.6125 59.9938 55.3923 57.1623 55.3923H53.1331V59.9067H46.823L42.835 55.4607L38.6911 59.9067H25.8415V46.4181H38.893L42.8672 50.8459L47.002 46.4181ZM71.5309 52.2276C72.155 52.2276 72.6828 52.2094 73.1233 51.9586C73.5318 51.7169 73.7842 51.2518 73.7842 50.6726C73.7842 50.1026 73.5272 49.6877 73.1233 49.4597C72.7333 49.2499 72.1505 49.2317 71.5768 49.2317H67.5751V52.2322L71.5309 52.2276ZM53.1331 52.6243H57.3275C58.562 52.6243 59.3238 52.0361 59.3238 50.8778C59.3238 49.7105 58.5253 49.2317 57.3643 49.2317H53.1331V52.6243ZM49.8931 47.8819L44.9277 53.1943L49.8931 58.6755V47.8819ZM29.086 57.0977H37.0481L40.747 53.1533L37.1904 49.2317H29.086V51.6622L36.1854 51.6576V54.4347H29.086V57.0977Z" fill="url(#paint1_radial)"/>
</g>
<defs>
<linearGradient id="paint0_linear" x1="57" y1="5" x2="57" y2="80" gradientUnits="userSpaceOnUse">
<stop stop-color="#F5F5F5"/>
<stop offset="1" stop-color="white"/>
</linearGradient>
<radialGradient id="paint1_radial" cx="0" cy="0" r="1" gradientUnits="userSpaceOnUse" gradientTransform="translate(18.8727 -1.73485) rotate(46.8025) scale(128.278 117.923)">
<stop stop-color="#7FD3F3"/>
<stop offset="1" stop-color="#017CC2"/>
</radialGradient>
<clipPath id="clip0">
<rect width="115" height="80" fill="white"/>
</clipPath>
</defs>
</svg>
