<svg width="115" height="80" viewBox="0 0 115 80" fill="none" xmlns="http://www.w3.org/2000/svg">
<rect x="0.5" y="0.5" width="114" height="79" rx="9.5" fill="black"/>
<rect x="0.5" y="0.5" width="114" height="79" rx="9.5" stroke="#E8E8E8"/>
<rect x="0.5" y="0.5" width="114" height="79" rx="9.5" stroke="#EDEDED"/>
<path d="M27.541 26.0281C26.4159 27.3454 24.6157 28.3844 22.8155 28.236C22.5904 26.4548 23.4718 24.5623 24.5032 23.3934C25.6283 22.039 27.5973 21.0742 29.1912 21C29.3787 22.8554 28.6474 24.6736 27.541 26.0281ZM29.1724 28.5885C26.5659 28.4401 24.3344 30.0542 23.0968 30.0542C21.8404 30.0542 19.9464 28.6627 17.8837 28.6998C15.2021 28.7369 12.7081 30.2398 11.3392 32.6332C8.52633 37.4201 10.6078 44.5076 13.3269 48.4039C14.6583 50.3335 16.2522 52.4486 18.3525 52.3744C20.3402 52.3002 21.1278 51.0942 23.5281 51.0942C25.9471 51.0942 26.6409 52.3744 28.7411 52.3373C30.9164 52.3002 32.2853 50.4077 33.6167 48.4781C35.1356 46.2888 35.7545 44.1551 35.792 44.0438C35.7545 44.0067 31.5915 42.4296 31.554 37.6798C31.5165 33.7093 34.8356 31.8168 34.9856 31.7055C33.1104 28.9596 30.1851 28.6627 29.1724 28.5885ZM44.2304 23.2079V52.1332H48.7684V42.2441H55.0504C60.7886 42.2441 64.8203 38.3478 64.8203 32.7074C64.8203 27.0671 60.8636 23.2079 55.2004 23.2079H44.2304ZM48.7684 26.9929H54.0003C57.9382 26.9929 60.1885 29.0709 60.1885 32.726C60.1885 36.3811 57.9382 38.4776 53.9815 38.4776H48.7684V26.9929ZM73.1087 52.3559C75.9591 52.3559 78.6031 50.9272 79.8032 48.6637H79.897V52.1332H84.0975V37.7355C84.0975 33.5609 80.7221 30.8706 75.5278 30.8706C70.7085 30.8706 67.1455 33.598 67.0143 37.3459H71.1023C71.4398 35.5647 73.1087 34.3958 75.3965 34.3958C78.1718 34.3958 79.7282 35.676 79.7282 38.0324V39.628L74.0651 39.9619C68.7957 40.2774 65.9454 42.411 65.9454 46.1218C65.9454 49.8696 68.8895 52.3559 73.1087 52.3559ZM74.3276 48.9234C71.9086 48.9234 70.3709 47.7731 70.3709 46.0105C70.3709 44.1922 71.8523 43.1346 74.6839 42.9677L79.7282 42.6522V44.285C79.7282 46.9938 77.403 48.9234 74.3276 48.9234ZM89.7044 60C94.1299 60 96.2114 58.3302 98.0303 53.265L106 31.1489H101.387L96.0426 48.2369H95.9489L90.6045 31.1489H85.8602L93.5486 52.2074L93.136 53.4876C92.4422 55.6584 91.3171 56.4933 89.3106 56.4933C88.9543 56.4933 88.2605 56.4562 87.9792 56.4191V59.8887C88.2417 59.9629 89.3668 60 89.7044 60Z" fill="white"/>
</svg>
