<svg width="115" height="80" viewBox="0 0 115 80" fill="none" xmlns="http://www.w3.org/2000/svg">
<rect x="0.5" y="0.5" width="114" height="79" rx="9.5" fill="url(#paint0_linear)"/>
<rect x="0.5" y="0.5" width="114" height="79" rx="9.5" stroke="#E8E8E8"/>
<rect x="0.5" y="0.5" width="114" height="79" rx="9.5" stroke="#EDEDED"/>
<path d="M66.1006 51.2073H46.8971V16.6953H66.1006V51.2073Z" fill="#6C6BBD"/>
<path d="M48.1274 33.9495C48.1274 26.9486 51.4053 20.7124 56.5098 16.6935C52.777 13.7547 48.066 12.0006 42.9461 12.0006C30.8253 12.0006 21 21.8273 21 33.9495C21 46.0717 30.8253 55.8984 42.9461 55.8984C48.066 55.8984 52.777 54.1444 56.5098 51.2056C51.4053 47.1867 48.1274 40.9505 48.1274 33.9495Z" fill="#EB001B"/>
<path d="M92 33.9495C92 46.0717 82.1747 55.8984 70.0539 55.8984C64.934 55.8984 60.223 54.1444 56.4888 51.2056C61.5948 47.1867 64.8726 40.9505 64.8726 33.9495C64.8726 26.9486 61.5948 20.7124 56.4888 16.6935C60.223 13.7547 64.934 12.0006 70.0539 12.0006C82.1747 12.0006 92 21.8273 92 33.9495Z" fill="#0099DF"/>
<path d="M72.5754 60.9538C72.8308 60.9538 73.1978 61.0026 73.4783 61.1129L73.0875 62.3074C72.8196 62.1971 72.5517 62.1609 72.2949 62.1609C71.466 62.1609 71.0516 62.6967 71.0516 63.6596V66.9277H69.7831V61.1003H71.039V61.8078C71.3684 61.2957 71.8442 60.9538 72.5754 60.9538ZM67.8895 62.2585H65.8173V64.8917C65.8173 65.4764 66.0238 65.8672 66.6587 65.8672C66.9881 65.8672 67.4025 65.7569 67.7793 65.5378L68.1449 66.6221C67.743 66.9026 67.1095 67.0742 66.5611 67.0742C65.061 67.0742 64.5377 66.269 64.5377 64.9155V62.2585H63.3543V61.1003H64.5377V59.3323H65.8173V61.1003H67.8895V62.2585ZM51.6619 63.5019C51.7973 62.6604 52.308 62.0869 53.2109 62.0869C54.0272 62.0869 54.5519 62.599 54.6859 63.5019H51.6619ZM56.0032 64.014C55.9906 62.1971 54.8687 60.9538 53.2346 60.9538C51.528 60.9538 50.3335 62.1971 50.3335 64.014C50.3335 65.8658 51.5768 67.0728 53.3211 67.0728C54.1989 67.0728 55.0026 66.8537 55.7101 66.2565L55.0878 65.3173C54.6007 65.7081 53.9784 65.9272 53.3937 65.9272C52.5773 65.9272 51.8336 65.549 51.6508 64.501H55.978C55.9906 64.3419 56.0032 64.1843 56.0032 64.014ZM61.5738 62.5879C61.2207 62.3674 60.5021 62.0869 59.7583 62.0869C59.0634 62.0869 58.6489 62.3437 58.6489 62.7707C58.6489 63.16 59.0871 63.2702 59.6355 63.3428L60.2327 63.4279C61.5012 63.6121 62.2687 64.148 62.2687 65.1722C62.2687 66.2816 61.2933 67.0742 59.6118 67.0742C58.6601 67.0742 57.7823 66.83 57.0874 66.3179L57.6847 65.3299C58.1117 65.6592 58.7466 65.9397 59.6243 65.9397C60.4895 65.9397 60.9528 65.6843 60.9528 65.2322C60.9528 64.9043 60.6235 64.7201 59.9285 64.6238L59.3313 64.5387C58.0265 64.3545 57.3191 63.7698 57.3191 62.8195C57.3191 61.6613 58.2707 60.9538 59.7457 60.9538C60.6723 60.9538 61.5138 61.1617 62.1222 61.5636L61.5738 62.5879ZM77.2097 62.1581C76.9487 62.1581 76.7073 62.2041 76.4827 62.2948C76.2594 62.3869 76.0654 62.5153 75.9022 62.68C75.7389 62.8446 75.6105 63.0428 75.517 63.273C75.4235 63.5033 75.3775 63.7572 75.3775 64.0335C75.3775 64.3112 75.4235 64.5638 75.517 64.7941C75.6105 65.0243 75.7389 65.2225 75.9022 65.3871C76.0654 65.5518 76.2594 65.6802 76.4827 65.7723C76.7073 65.8644 76.9487 65.909 77.2097 65.909C77.4706 65.909 77.7134 65.8644 77.9367 65.7723C78.1614 65.6802 78.3567 65.5518 78.52 65.3871C78.6861 65.2225 78.8144 65.0243 78.9093 64.7941C79.0028 64.5638 79.0489 64.3112 79.0489 64.0335C79.0489 63.7572 79.0028 63.5033 78.9093 63.273C78.8144 63.0428 78.6861 62.8446 78.52 62.68C78.3567 62.5153 78.1614 62.3869 77.9367 62.2948C77.7134 62.2041 77.4706 62.1581 77.2097 62.1581ZM77.2097 60.9538C77.6618 60.9538 78.0804 61.0319 78.4656 61.1896C78.8507 61.3459 79.1842 61.5622 79.4647 61.8371C79.7466 62.112 79.9657 62.4372 80.1248 62.8111C80.2838 63.1865 80.3634 63.594 80.3634 64.0335C80.3634 64.4731 80.2838 64.8806 80.1248 65.2559C79.9657 65.6299 79.7466 65.9565 79.4647 66.2314C79.1842 66.5063 78.8507 66.7212 78.4656 66.8788C78.0804 67.0351 77.6618 67.1133 77.2097 67.1133C76.7576 67.1133 76.3389 67.0351 75.9538 66.8788C75.5686 66.7212 75.2379 66.5063 74.9588 66.2314C74.6797 65.9565 74.4607 65.6299 74.3016 65.2559C74.1425 64.8806 74.063 64.4731 74.063 64.0335C74.063 63.594 74.1425 63.1865 74.3016 62.8111C74.4607 62.4372 74.6797 62.112 74.9588 61.8371C75.2379 61.5622 75.5686 61.3459 75.9538 61.1896C76.3389 61.0319 76.7576 60.9538 77.2097 60.9538ZM44.2549 64.014C44.2549 62.9898 44.9261 62.1483 46.023 62.1483C47.0709 62.1483 47.7784 62.9535 47.7784 64.014C47.7784 65.0745 47.0709 65.8783 46.023 65.8783C44.9261 65.8783 44.2549 65.0383 44.2549 64.014ZM48.9729 64.014V61.1003H47.7059V61.8078C47.3026 61.2831 46.6942 60.9538 45.8653 60.9538C44.2312 60.9538 42.9516 62.2334 42.9516 64.014C42.9516 65.7932 44.2312 67.0742 45.8653 67.0742C46.6942 67.0742 47.3026 66.7449 47.7059 66.2202V66.9277H48.9729V64.014ZM41.8297 66.9277V63.2702C41.8297 61.8929 40.9519 60.9664 39.5383 60.9538C38.7946 60.9412 38.0257 61.1729 37.4898 61.9906C37.088 61.3445 36.453 60.9538 35.5627 60.9538C34.9418 60.9538 34.332 61.1366 33.8561 61.819V61.1003H32.5891V66.9277H33.8687V63.6972C33.8687 62.6855 34.4296 62.1483 35.2948 62.1483C36.1363 62.1483 36.5633 62.6967 36.5633 63.6847V66.9277H37.8429V63.6972C37.8429 62.6855 38.429 62.1483 39.269 62.1483C40.1356 62.1483 40.55 62.6967 40.55 63.6847V66.9277H41.8297Z" fill="#231F20"/>
<defs>
<linearGradient id="paint0_linear" x1="57" y1="5" x2="57" y2="80" gradientUnits="userSpaceOnUse">
<stop stop-color="#F5F5F5"/>
<stop offset="1" stop-color="white"/>
</linearGradient>
</defs>
</svg>
