<svg width="115" height="80" viewBox="0 0 115 80" fill="none" xmlns="http://www.w3.org/2000/svg">
<rect x="0.5" y="0.5" width="114" height="79" rx="9.5" fill="url(#paint0_linear)"/>
<rect x="0.5" y="0.5" width="114" height="79" rx="9.5" stroke="#E8E8E8"/>
<rect x="0.5" y="0.5" width="114" height="79" rx="9.5" stroke="#EDEDED"/>
<path d="M37.2801 64.0126C37.2801 62.9883 37.9513 62.1469 39.0481 62.1469C40.0961 62.1469 40.8035 62.952 40.8035 64.0126C40.8035 65.0731 40.0961 65.8783 39.0481 65.8783C37.9513 65.8783 37.2801 65.0368 37.2801 64.0126ZM41.998 64.0126V61.0989H40.731V61.8064C40.3291 61.2817 39.7193 60.9524 38.8904 60.9524C37.2563 60.9524 35.9753 62.2334 35.9753 64.0126C35.9753 65.7932 37.2563 67.0728 38.8904 67.0728C39.7193 67.0728 40.3291 66.7435 40.731 66.2188V66.9263H41.998V64.0126ZM84.8157 64.0126C84.8157 62.9883 85.4869 62.1469 86.5837 62.1469C87.6331 62.1469 88.3392 62.952 88.3392 64.0126C88.3392 65.0731 87.6331 65.8783 86.5837 65.8783C85.4869 65.8783 84.8157 65.0368 84.8157 64.0126ZM89.5351 64.0126V58.7588H88.2666V61.8064C87.8648 61.2817 87.2549 60.9524 86.4261 60.9524C84.792 60.9524 83.511 62.2334 83.511 64.0126C83.511 65.7932 84.792 67.0728 86.4261 67.0728C87.2549 67.0728 87.8648 66.7435 88.2666 66.2188V66.9263H89.5351V64.0126ZM57.726 62.0869C58.5424 62.0869 59.0671 62.599 59.201 63.5005H56.1771C56.3125 62.659 56.8232 62.0869 57.726 62.0869ZM57.7512 60.9524C56.0431 60.9524 54.8487 62.1957 54.8487 64.0126C54.8487 65.8657 56.092 67.0728 57.8363 67.0728C58.714 67.0728 59.5178 66.8537 60.2253 66.2564L59.6043 65.3173C59.1159 65.7066 58.4935 65.9271 57.9088 65.9271C57.0925 65.9271 56.3487 65.549 56.1659 64.4996H60.4932C60.5058 64.3419 60.5183 64.1828 60.5183 64.0126C60.5058 62.1957 59.3838 60.9524 57.7512 60.9524ZM73.0508 64.0126C73.0508 62.9883 73.722 62.1469 74.8188 62.1469C75.8668 62.1469 76.5743 62.952 76.5743 64.0126C76.5743 65.0731 75.8668 65.8783 74.8188 65.8783C73.722 65.8783 73.0508 65.0368 73.0508 64.0126ZM77.7687 64.0126V61.0989H76.5017V61.8064C76.0984 61.2817 75.49 60.9524 74.6611 60.9524C73.027 60.9524 71.746 62.2334 71.746 64.0126C71.746 65.7932 73.027 67.0728 74.6611 67.0728C75.49 67.0728 76.0984 66.7435 76.5017 66.2188V66.9263H77.7687V64.0126ZM65.895 64.0126C65.895 65.7806 67.1257 67.0728 69.004 67.0728C69.8817 67.0728 70.4664 66.8774 71.0999 66.3779L70.4915 65.3536C70.0157 65.6955 69.5161 65.8783 68.9663 65.8783C67.9546 65.8657 67.2109 65.1345 67.2109 64.0126C67.2109 62.8906 67.9546 62.1594 68.9663 62.1469C69.5161 62.1469 70.0157 62.3297 70.4915 62.6716L71.0999 61.6473C70.4664 61.1477 69.8817 60.9524 69.004 60.9524C67.1257 60.9524 65.895 62.2446 65.895 64.0126ZM82.2314 60.9524C81.5002 60.9524 81.0243 61.2943 80.695 61.8064V61.0989H79.4391V66.9263H80.7075V63.6595C80.7075 62.6953 81.122 62.1594 81.9509 62.1594C82.2076 62.1594 82.4756 62.1957 82.7435 62.306L83.1342 61.1115C82.8537 61.0012 82.4881 60.9524 82.2314 60.9524ZM48.265 61.5622C47.6552 61.1603 46.8151 60.9524 45.8885 60.9524C44.4122 60.9524 43.4619 61.6599 43.4619 62.8181C43.4619 63.7684 44.1693 64.3545 45.4727 64.5373L46.0713 64.6224C46.7663 64.7201 47.0942 64.9029 47.0942 65.2322C47.0942 65.6829 46.6309 65.9397 45.7657 65.9397C44.888 65.9397 44.2545 65.6592 43.8275 65.3299L43.2302 66.3165C43.9251 66.8286 44.8029 67.0728 45.7532 67.0728C47.4361 67.0728 48.4115 66.2802 48.4115 65.1708C48.4115 64.1465 47.644 63.6107 46.3755 63.4279L45.7783 63.3414C45.2299 63.2688 44.7903 63.16 44.7903 62.7692C44.7903 62.3422 45.2048 62.0869 45.8997 62.0869C46.6435 62.0869 47.3635 62.3674 47.7166 62.5864L48.265 61.5622ZM64.6139 60.9524C63.8827 60.9524 63.4069 61.2943 63.079 61.8064V61.0989H61.8231V66.9263H63.0901V63.6595C63.0901 62.6953 63.5046 62.1594 64.3335 62.1594C64.5902 62.1594 64.8581 62.1957 65.1261 62.306L65.5168 61.1115C65.2363 61.0012 64.8707 60.9524 64.6139 60.9524ZM53.8007 61.0989H51.7284V59.3309H50.4474V61.0989H49.2655V62.2571H50.4474V64.9154C50.4474 66.2676 50.9721 67.0728 52.4708 67.0728C53.0206 67.0728 53.6542 66.9025 54.056 66.6221L53.6904 65.5364C53.3123 65.7555 52.8978 65.8657 52.5685 65.8657C51.935 65.8657 51.7284 65.475 51.7284 64.8903V62.2571H53.8007V61.0989ZM34.8548 66.9263V63.2688C34.8548 61.8915 33.9771 60.9649 32.5621 60.9524C31.8183 60.9398 31.0508 61.1715 30.5136 61.9892C30.1117 61.3431 29.4782 60.9524 28.5879 60.9524C27.9655 60.9524 27.3571 61.1352 26.8812 61.8176V61.0989H25.6128V66.9263H26.8924V63.6958C26.8924 62.6841 27.4534 62.1469 28.3199 62.1469C29.1614 62.1469 29.587 62.6953 29.587 63.6833V66.9263H30.868V63.6958C30.868 62.6841 31.4527 62.1469 32.2942 62.1469C33.1593 62.1469 33.5738 62.6953 33.5738 63.6833V66.9263H34.8548Z" fill="#231F20"/>
<path d="M67.1007 51.2073H47.8972V16.6953H67.1007V51.2073Z" fill="#FF5F00"/>
<path d="M49.1273 33.9496C49.1273 26.9486 52.4052 20.7124 57.5098 16.6936C53.777 13.7548 49.0659 12.0007 43.9461 12.0007C31.8253 12.0007 22 21.8274 22 33.9496C22 46.0718 31.8253 55.8984 43.9461 55.8984C49.0659 55.8984 53.777 54.1444 57.5098 51.2056C52.4052 47.1867 49.1273 40.9505 49.1273 33.9496Z" fill="#EB001B"/>
<path d="M93 33.9496C93 46.0718 83.1747 55.8984 71.0539 55.8984C65.934 55.8984 61.223 54.1444 57.4888 51.2056C62.5947 47.1867 65.8726 40.9505 65.8726 33.9496C65.8726 26.9486 62.5947 20.7124 57.4888 16.6936C61.223 13.7548 65.934 12.0007 71.0539 12.0007C83.1747 12.0007 93 21.8274 93 33.9496Z" fill="#F79E1B"/>
<defs>
<linearGradient id="paint0_linear" x1="57" y1="5" x2="57" y2="80" gradientUnits="userSpaceOnUse">
<stop stop-color="#F5F5F5"/>
<stop offset="1" stop-color="white"/>
</linearGradient>
</defs>
</svg>
