<svg width="115" height="80" viewBox="0 0 115 80" fill="none" xmlns="http://www.w3.org/2000/svg">
<rect x="0.5" y="0.5" width="114" height="79" rx="9.5" fill="url(#paint0_linear)"/>
<rect x="0.5" y="0.5" width="114" height="79" rx="9.5" stroke="#E8E8E8"/>
<rect x="0.5" y="0.5" width="114" height="79" rx="9.5" stroke="#EDEDED"/>
<path d="M19.8683 27H12.1753C11.9207 26.9998 11.6743 27.0903 11.4806 27.255C11.287 27.4198 11.1588 27.648 11.1191 27.8986L8.00769 47.5471C7.99338 47.6383 7.99909 47.7315 8.02441 47.8203C8.04973 47.909 8.09406 47.9913 8.15436 48.0613C8.21466 48.1314 8.28948 48.1876 8.37368 48.2261C8.45789 48.2646 8.54946 48.2845 8.64211 48.2844H12.3148C12.5697 48.2845 12.8162 48.1939 13.0098 48.0289C13.2035 47.8639 13.3316 47.6354 13.3711 47.3847L14.2102 42.0851C14.2496 41.8346 14.3776 41.6062 14.571 41.4413C14.7645 41.2763 15.0107 41.1856 15.2654 41.1855H17.7007C22.7683 41.1855 25.6929 38.743 26.4567 33.9028C26.8009 31.7853 26.4713 30.1215 25.4758 28.9562C24.3825 27.6767 22.4432 27 19.8683 27ZM20.7559 34.1762C20.3352 36.9257 18.226 36.9257 16.1866 36.9257H15.0258L15.8402 31.7909C15.864 31.6406 15.9409 31.5038 16.057 31.405C16.1731 31.3062 16.3208 31.2519 16.4735 31.2519H17.0055C18.3948 31.2519 19.7052 31.2519 20.3824 32.0407C20.7862 32.5113 20.91 33.2104 20.7559 34.1762ZM42.8641 34.0877H39.1801C39.0275 34.0877 38.8798 34.142 38.7637 34.2408C38.6476 34.3396 38.5707 34.4764 38.5468 34.6266L38.3837 35.6529L38.1261 35.2809C37.3286 34.128 35.5502 33.7426 33.7751 33.7426C29.7042 33.7426 26.2272 36.8136 25.5501 41.1216C25.198 43.2705 25.6986 45.3254 26.9224 46.7584C28.045 48.076 29.6514 48.625 31.5625 48.625C34.8426 48.625 36.6616 46.5242 36.6616 46.5242L36.4973 47.5438C36.4827 47.6349 36.4881 47.7282 36.5131 47.817C36.5381 47.9059 36.5822 47.9884 36.6423 48.0586C36.7024 48.1289 36.777 48.1854 36.8612 48.2242C36.9453 48.263 37.0368 48.2831 37.1295 48.2832H40.4479C40.7027 48.2834 40.9492 48.1928 41.1429 48.0278C41.3366 47.8628 41.4647 47.6343 41.5041 47.3836L43.4952 34.8249C43.5098 34.734 43.5045 34.6409 43.4795 34.5522C43.4545 34.4635 43.4105 34.3813 43.3505 34.3112C43.2905 34.2411 43.2159 34.1848 43.132 34.1462C43.048 34.1076 42.9566 34.0877 42.8641 34.0877ZM37.7291 41.2292C37.3736 43.3254 35.7032 44.7327 33.5727 44.7327C32.5029 44.7327 31.648 44.3909 31.0991 43.7434C30.5546 43.1002 30.3476 42.1849 30.5209 41.1653C30.8527 39.0869 32.5513 37.6338 34.6492 37.6338C35.6953 37.6338 36.5457 37.98 37.1059 38.6332C37.6672 39.2931 37.8899 40.2141 37.7291 41.2292ZM62.4841 34.0877H58.7822C58.6076 34.088 58.4357 34.1307 58.2814 34.2121C58.1272 34.2935 57.9952 34.4112 57.8969 34.5549L52.7911 42.0459L50.6268 34.8473C50.5604 34.6278 50.4248 34.4354 50.24 34.2985C50.0553 34.1617 49.8312 34.0878 49.601 34.0877H45.9631C45.861 34.0874 45.7603 34.1114 45.6694 34.1578C45.5785 34.2041 45.5 34.2714 45.4405 34.354C45.3809 34.4367 45.3421 34.5323 45.3271 34.6329C45.3122 34.7335 45.3216 34.8362 45.3546 34.9325L49.4322 46.8514L45.5987 52.2416C45.5305 52.3372 45.4901 52.4496 45.4819 52.5665C45.4736 52.6834 45.4978 52.8004 45.5518 52.9045C45.6058 53.0086 45.6876 53.096 45.7881 53.1569C45.8886 53.2178 46.0041 53.25 46.1217 53.25H49.8192C49.9918 53.2502 50.1619 53.2088 50.3149 53.1292C50.468 53.0495 50.5993 52.9341 50.6977 52.7929L63.0106 35.0905C63.0773 34.9947 63.1164 34.8825 63.1237 34.7662C63.1311 34.6498 63.1062 34.5337 63.052 34.4304C62.9978 34.3271 62.9162 34.2405 62.8161 34.1801C62.716 34.1197 62.6012 34.0877 62.4841 34.0877Z" fill="#253B80"/>
<path d="M74.6814 27.0011H67.1896C66.9418 27.0012 66.7022 27.0928 66.5139 27.2595C66.3255 27.4261 66.2008 27.6568 66.1622 27.91L63.1327 47.7848C63.1186 47.8768 63.1239 47.971 63.1484 48.0607C63.1729 48.1504 63.2158 48.2336 63.2743 48.3044C63.3328 48.3753 63.4055 48.4322 63.4873 48.4712C63.5691 48.5103 63.6581 48.5305 63.7482 48.5305H67.5927C67.7661 48.5302 67.9338 48.4659 68.0655 48.3492C68.1972 48.2324 68.2843 48.0709 68.3112 47.8936L69.171 42.2599C69.2094 42.0064 69.3339 41.7755 69.5223 41.6086C69.7107 41.4418 69.9504 41.35 70.1984 41.3499H72.5686C77.5039 41.3499 80.3506 38.8793 81.0954 33.9834C81.4316 31.8415 81.1085 30.1585 80.1392 28.9799C79.0757 27.6856 77.1885 27.0011 74.6814 27.0011ZM75.5456 34.2599C75.137 37.0411 73.0834 37.0411 71.0965 37.0411H69.9673L70.7613 31.8471C70.7841 31.6952 70.8587 31.5567 70.9716 31.4567C71.0845 31.3567 71.2283 31.3018 71.3769 31.302H71.895C73.2465 31.302 74.5237 31.302 75.183 32.0999C75.5762 32.5758 75.6956 33.283 75.5456 34.2599ZM97.0712 34.1704H93.4864C93.3377 34.17 93.1938 34.2248 93.0808 34.3248C92.9679 34.4248 92.8934 34.5635 92.8708 34.7155L92.712 35.7536L92.4601 35.3774C91.6835 34.2112 89.953 33.8213 88.2246 33.8213C84.2608 33.8213 80.8763 36.9277 80.217 41.2853C79.8752 43.459 80.3604 45.5374 81.5521 46.9869C82.6474 48.3197 84.2093 48.875 86.0702 48.875C89.264 48.875 91.0351 46.7501 91.0351 46.7501L90.8752 47.7814C90.8609 47.8738 90.8662 47.9683 90.8907 48.0583C90.9152 48.1484 90.9583 48.2319 91.017 48.303C91.0758 48.3742 91.1488 48.4312 91.2309 48.4703C91.3131 48.5094 91.4025 48.5295 91.4929 48.5293H94.7229C94.9709 48.5292 95.2106 48.4374 95.399 48.2706C95.5874 48.1037 95.7119 47.8728 95.7503 47.6193L97.6901 34.9161C97.7038 34.8238 97.6981 34.7295 97.6733 34.6398C97.6485 34.55 97.6052 34.4668 97.5464 34.396C97.4877 34.3251 97.4147 34.2683 97.3327 34.2293C97.2507 34.1904 97.1615 34.1703 97.0712 34.1704ZM92.0712 41.3941C91.7273 43.5145 90.0986 44.9379 88.0242 44.9379C86.9847 44.9379 86.1501 44.5923 85.6156 43.9372C85.0855 43.2867 84.8862 42.3608 85.0526 41.3295C85.3779 39.2272 87.0296 37.7573 89.0723 37.7573C90.091 37.7573 90.919 38.1075 91.4645 38.7682C92.0132 39.4357 92.2301 40.3673 92.0712 41.3941ZM101.3 27.5463L98.2257 47.7848C98.2116 47.8768 98.2169 47.971 98.2414 48.0607C98.2659 48.1504 98.3088 48.2336 98.3673 48.3044C98.4258 48.3753 98.4985 48.4322 98.5803 48.4712C98.6621 48.5103 98.7511 48.5305 98.8412 48.5305H101.932C102.446 48.5305 102.882 48.1452 102.961 47.6204L105.992 27.7468C106.006 27.6547 106.001 27.5605 105.977 27.4708C105.952 27.381 105.909 27.2978 105.851 27.2268C105.792 27.1558 105.72 27.0988 105.638 27.0597C105.556 27.0205 105.467 27.0002 105.377 27H101.916C101.767 27.0005 101.624 27.0558 101.511 27.1559C101.398 27.256 101.323 27.3944 101.3 27.5463Z" fill="#179BD7"/>
<defs>
<linearGradient id="paint0_linear" x1="57" y1="5" x2="57" y2="80" gradientUnits="userSpaceOnUse">
<stop stop-color="#F5F5F5"/>
<stop offset="1" stop-color="white"/>
</linearGradient>
</defs>
</svg>
